<?xml version="1.0" standalone="no"?>
<!DOCTYPE svg PUBLIC "-//W3C//DTD SVG 20010904//EN"
 "http://www.w3.org/TR/2001/REC-SVG-20010904/DTD/svg10.dtd">
<svg version="1.0" xmlns="http://www.w3.org/2000/svg"
 width="255.000000pt" height="255.000000pt" viewBox="0 0 255.000000 255.000000"
 preserveAspectRatio="xMidYMid meet">
<metadata>
Created by potrace 1.11, written by Peter Selinger 2001-2013
</metadata>
<g transform="translate(0.000000,255.000000) scale(0.100000,-0.100000)"
fill="#000000" stroke="none">
<path d="M1710 1613 c-25 -7 -52 -19 -60 -26 -19 -15 -74 -87 -67 -87 3 0 -4
-23 -14 -51 -11 -28 -14 -47 -8 -44 8 6 8 2 0 -13 -11 -20 -9 -214 2 -260 13
-50 33 -98 50 -116 9 -11 17 -23 17 -26 0 -8 70 -43 95 -47 39 -7 110 -9 120
-4 6 3 18 7 29 8 60 10 117 86 144 193 7 30 11 240 4 240 -4 0 -8 18 -9 40 -1
39 -28 107 -56 142 -42 52 -161 78 -247 51z m124 -144 c-3 -5 -1 -9 3 -9 18 0
29 -78 26 -185 -1 -60 -4 -117 -6 -125 -15 -60 -21 -69 -45 -78 -72 -25 -99
36 -97 221 2 129 19 192 53 200 24 5 73 -13 66 -24z"/>
<path d="M6 1581 c7 -47 10 -61 17 -91 4 -14 9 -38 11 -55 2 -16 5 -31 6 -32
3 -4 5 -10 15 -68 5 -27 10 -54 11 -60 1 -5 3 -13 4 -17 1 -5 4 -17 5 -28 1
-11 3 -21 5 -22 2 -4 7 -27 15 -78 4 -24 8 -47 11 -51 2 -3 6 -24 8 -46 11
-86 15 -89 100 -90 62 -1 76 2 80 15 7 21 16 77 20 125 2 21 6 40 9 43 3 3 3
12 0 20 -3 8 -1 14 3 14 5 0 9 20 9 45 0 25 3 45 8 45 4 0 5 6 1 13 -4 6 -3 9
1 4 5 -4 10 -15 11 -25 7 -70 17 -138 21 -145 3 -5 7 -27 9 -50 4 -50 11 -84
18 -96 5 -7 156 -12 156 -5 0 5 32 159 46 224 3 14 7 34 8 45 2 11 4 20 5 20
3 0 13 73 15 103 0 12 3 22 6 22 3 0 7 10 8 23 2 24 10 62 12 62 1 0 3 14 6
30 5 36 12 70 14 70 1 0 3 16 6 36 l4 36 -77 -1 c-68 -1 -78 -3 -75 -18 2 -10
-1 -18 -5 -18 -5 0 -8 -15 -8 -32 0 -18 -2 -37 -5 -43 -2 -5 -5 -17 -5 -25 -1
-8 -5 -44 -10 -80 -4 -36 -9 -74 -11 -85 -1 -11 -3 -21 -4 -22 -2 -2 -3 -12
-4 -22 -1 -22 -12 -38 -13 -18 -1 19 -18 163 -28 227 -2 14 -6 47 -10 75 -4
27 -8 52 -10 56 -8 11 -155 7 -156 -5 -2 -28 -7 -63 -12 -91 -10 -55 -27 -179
-31 -223 -4 -46 -15 -69 -17 -34 -2 29 -6 61 -8 65 -3 2 -7 38 -16 117 -3 30
-9 70 -12 89 -3 19 -7 44 -8 55 -1 12 -3 24 -4 27 0 3 -37 6 -81 6 l-80 0 6
-36z"/>
<path d="M903 1607 c-3 -6 -7 -125 -7 -264 -1 -214 -3 -255 -16 -263 -17 -11
-51 -3 -62 14 -8 12 -48 17 -48 6 0 -4 -10 -11 -22 -14 -13 -3 -34 -14 -47
-24 -23 -18 -23 -20 -7 -44 9 -15 36 -39 59 -54 35 -23 52 -28 107 -27 90 0
140 26 169 88 23 49 23 50 25 325 l1 265 -73 1 c-42 1 -75 -3 -79 -9z"/>
<path d="M1149 1591 c-1 -34 -1 -611 0 -632 1 -13 24 -15 184 -15 l182 1 2 70
2 70 -106 0 -107 0 0 265 -1 265 -77 1 c-78 2 -78 2 -79 -25z"/>
<path d="M2099 1582 c0 -56 0 -583 0 -612 1 -26 2 -26 82 -27 74 -1 80 1 76
18 -3 10 -1 21 4 24 4 3 5 13 2 22 -8 20 -8 81 -1 89 4 3 3 18 -2 33 -4 16 -4
34 0 42 5 7 6 17 3 21 -7 13 18 39 30 31 6 -4 30 -6 54 -4 l43 2 1 -53 c0 -29
1 -91 2 -138 l2 -85 78 -1 77 -1 0 338 0 338 -77 -2 -78 -2 0 -93 c0 -50 -4
-92 -8 -92 -5 0 -5 -6 0 -12 11 -18 10 -42 -2 -50 -5 -4 -36 -8 -67 -8 l-57 0
-3 128 -3 127 -77 2 -78 2 -1 -37z"/>
</g>
</svg>
